<?xml version="1.0" encoding="UTF-8" standalone="no"?>
<svg
   height="128"
   width="128"
   version="1.1"
   id="svg26"
   sodipodi:docname="Drag and Snap Logo.svg"
   xml:space="preserve"
   inkscape:version="1.2.2 (732a01da63, 2022-12-09)"
   xmlns:inkscape="http://www.inkscape.org/namespaces/inkscape"
   xmlns:sodipodi="http://sodipodi.sourceforge.net/DTD/sodipodi-0.dtd"
   xmlns="http://www.w3.org/2000/svg"
   xmlns:svg="http://www.w3.org/2000/svg"><defs
     id="defs30" /><sodipodi:namedview
     id="namedview28"
     pagecolor="#505050"
     bordercolor="#eeeeee"
     borderopacity="1"
     inkscape:showpageshadow="0"
     inkscape:pageopacity="0"
     inkscape:pagecheckerboard="0"
     inkscape:deskcolor="#505050"
     showgrid="false"
     showguides="true"
     inkscape:zoom="2.3201941"
     inkscape:cx="116.80057"
     inkscape:cy="82.536197"
     inkscape:window-width="1920"
     inkscape:window-height="1001"
     inkscape:window-x="-9"
     inkscape:window-y="-9"
     inkscape:window-maximized="1"
     inkscape:current-layer="svg26" /><g
     stroke-width="9.92746"
     transform="matrix(0.06872067,0,0,0.06872067,26.319319,16.920701)"
     id="g24"><path
       d="m 0,0 c 0,0 -0.325,1.994 -0.515,1.976 l -36.182,-3.491 c -2.879,-0.278 -5.115,-2.574 -5.317,-5.459 l -0.994,-14.247 -27.992,-1.997 -1.904,12.912 c -0.424,2.872 -2.932,5.037 -5.835,5.037 h -38.188 c -2.902,0 -5.41,-2.165 -5.834,-5.037 l -1.905,-12.912 -27.992,1.997 -0.994,14.247 c -0.202,2.886 -2.438,5.182 -5.317,5.46 l -36.2,3.49 c -0.187,0.018 -0.324,-1.978 -0.511,-1.978 l -0.049,-7.83 30.658,-4.944 1.004,-14.374 c 0.203,-2.91 2.551,-5.263 5.463,-5.472 l 38.551,-2.75 c 0.146,-0.01 0.29,-0.016 0.434,-0.016 2.897,0 5.401,2.166 5.825,5.038 l 1.959,13.286 h 28.005 l 1.959,-13.286 c 0.423,-2.871 2.93,-5.037 5.831,-5.037 0.142,0 0.284,0.005 0.423,0.015 l 38.556,2.75 c 2.911,0.209 5.26,2.562 5.463,5.472 l 1.003,14.374 30.645,4.966 z"
       fill="#ffffff"
       transform="matrix(4.162611,0,0,-4.162611,919.24059,771.67186)"
       id="path8" /><path
       d="m 0,0 v -47.514 -6.035 -5.492 c 0.108,-0.001 0.216,-0.005 0.323,-0.015 l 36.196,-3.49 c 1.896,-0.183 3.382,-1.709 3.514,-3.609 l 1.116,-15.978 31.574,-2.253 2.175,14.747 c 0.282,1.912 1.922,3.329 3.856,3.329 h 38.188 c 1.933,0 3.573,-1.417 3.855,-3.329 l 2.175,-14.747 31.575,2.253 1.115,15.978 c 0.133,1.9 1.618,3.425 3.514,3.609 l 36.182,3.49 c 0.107,0.01 0.214,0.014 0.322,0.015 v 4.711 l 0.015,0.005 V 0 c 5.09692,6.4164715 9.92323,13.494208 13.621,19.449 -5.651,9.62 -12.575,18.217 -19.976,26.182 -6.864,-3.455 -13.531,-7.369 -19.828,-11.534 -3.151,3.132 -6.7,5.694 -10.186,8.372 -3.425,2.751 -7.285,4.768 -10.946,7.118 1.09,8.117 1.629,16.108 1.846,24.448 -9.446,4.754 -19.519,7.906 -29.708,10.17 -4.068,-6.837 -7.788,-14.241 -11.028,-21.479 -3.842,0.642 -7.702,0.88 -11.567,0.926 v 0.006 c -0.027,0 -0.052,-0.006 -0.075,-0.006 -0.024,0 -0.049,0.006 -0.073,0.006 V 63.652 C 93.903,63.606 90.046,63.368 86.203,62.726 82.965,69.964 79.247,77.368 75.173,84.205 64.989,81.941 54.915,78.789 45.47,74.035 45.686,65.695 46.225,57.704 47.318,49.587 43.65,47.237 39.795,45.22 36.369,42.469 32.888,39.791 29.333,37.229 26.181,34.097 19.884,38.262 13.219,42.176 6.353,45.631 -1.048,37.666 -7.968,29.069 -13.621,19.449 -9.1783421,12.475308 -4.4130298,5.4661124 0,0 Z"
       fill="#478cbf"
       transform="matrix(4.162611,0,0,-4.162611,104.69892,525.90697)"
       id="path10" /><path
       d="m 0,0 -1.121,-16.063 c -0.135,-1.936 -1.675,-3.477 -3.611,-3.616 l -38.555,-2.751 c -0.094,-0.007 -0.188,-0.01 -0.281,-0.01 -1.916,0 -3.569,1.406 -3.852,3.33 l -2.211,14.994 H -81.09 l -2.211,-14.994 c -0.297,-2.018 -2.101,-3.469 -4.133,-3.32 l -38.555,2.751 c -1.936,0.139 -3.476,1.68 -3.611,3.616 L -130.721,0 -163.268,3.138 c 0.015,-3.498 0.06,-7.33 0.06,-8.093 0,-34.374 43.605,-50.896 97.781,-51.086 h 0.066 0.067 c 54.176,0.19 97.766,16.712 97.766,51.086 0,0.777 0.047,4.593 0.063,8.093 z"
       fill="#478cbf"
       transform="matrix(4.162611,0,0,-4.162611,784.07144,817.24284)"
       id="path12" /><path
       d="m 0,0 c 0,-12.052 -9.765,-21.815 -21.813,-21.815 -12.042,0 -21.81,9.763 -21.81,21.815 0,12.044 9.768,21.802 21.81,21.802 C -9.765,21.802 0,12.044 0,0"
       fill="#ffffff"
       transform="matrix(4.162611,0,0,-4.162611,389.21484,625.67104)"
       id="path14" /><path
       d="m 0,0 c 0,-7.994 -6.479,-14.473 -14.479,-14.473 -7.996,0 -14.479,6.479 -14.479,14.473 0,7.994 6.483,14.479 14.479,14.479 C -6.479,14.479 0,7.994 0,0"
       fill="#414042"
       transform="matrix(4.162611,0,0,-4.162611,367.36686,631.05679)"
       id="path16" /><path
       d="m 0,0 c -3.878,0 -7.021,2.858 -7.021,6.381 v 20.081 c 0,3.52 3.143,6.381 7.021,6.381 3.878,0 7.028,-2.861 7.028,-6.381 V 6.381 C 7.028,2.858 3.878,0 0,0"
       fill="#ffffff"
       transform="matrix(4.162611,0,0,-4.162611,511.99336,724.73954)"
       id="path18" /><path
       d="m 0,0 c 0,-12.052 9.765,-21.815 21.815,-21.815 12.041,0 21.808,9.763 21.808,21.815 0,12.044 -9.767,21.802 -21.808,21.802 C 9.765,21.802 0,12.044 0,0"
       fill="#ffffff"
       transform="matrix(4.162611,0,0,-4.162611,634.78706,625.67104)"
       id="path20" /><path
       d="m 0,0 c 0,-7.994 6.477,-14.473 14.471,-14.473 8.002,0 14.479,6.479 14.479,14.473 0,7.994 -6.477,14.479 -14.479,14.479 C 6.477,14.479 0,7.994 0,0"
       fill="#414042"
       transform="matrix(4.162611,0,0,-4.162611,656.64056,631.05679)"
       id="path22" /></g><g
     id="g3353"
     transform="matrix(0.540177,-0.37739363,0.37739363,0.540177,-38.642698,113.01909)"><g
       style="fill:none"
       id="g3150"
       transform="matrix(3.8955497,0,0,3.8955497,124.70273,36.047259)"><path
         d="m 7,10.5 -2.00409,2.6721 c -0.57746,0.77 -0.52464,1.842 0.12569,2.5515 l 3.7839,4.1279 c 0.37882,0.4132 0.91276,0.6485 1.4734,0.6485 1.0862,0 2.8626,0 4.6211,0 2.4,0 4,-1.5 4,-4 0,0 0,0 0,0 0,0 0,-6.85713 0,-8.57141"
         stroke="#000000"
         stroke-width="1.5"
         stroke-linecap="round"
         stroke-linejoin="round"
         id="path3126" /><path
         d="m 16,8.49995 c 0,0 0,-0.12512 0,-0.57143 0,-2.28572 3,-2.28572 3,0"
         stroke="#000000"
         stroke-width="1.5"
         stroke-linecap="round"
         stroke-linejoin="round"
         id="path3128" /><path
         d="m 13,8.50008 c 0,0 0,-0.5803 0,-1.47293 m 0,-0.52707 c 0,0 0,0.30392 0,0.52707 m 3,1.47293 c 0,0 0,-0.12512 0,-0.57143 0,-0.22316 0,-0.67834 0,-0.9015 0,-2.28571 -3,-2.28571 -3,0"
         stroke="#000000"
         stroke-width="1.5"
         stroke-linecap="round"
         stroke-linejoin="round"
         id="path3130" /><path
         d="m 13,8.50008 c 0,0 0,-0.5803 0,-1.47293 0,-2.28571 3,-2.28571 3,0 0,0.22316 0,0.67834 0,0.9015 0,0.44631 0,0.57143 0,0.57143"
         stroke="#000000"
         stroke-width="1.5"
         stroke-linecap="round"
         stroke-linejoin="round"
         id="path3132" /><path
         d="m 10,8.50005 c 0,0 0,-0.64286 0,-2 0,-2.28571 3,-2.28571 3,0 0,0 0,0 0,0 0,0 0,0.30392 0,0.52708 0,0.89262 0,1.47292 0,1.47292"
         stroke="#000000"
         stroke-width="1.5"
         stroke-linecap="round"
         stroke-linejoin="round"
         id="path3134" /><path
         d="M 7,13.5001 V 6.50006 c 0,-0.82842 0.67157,-1.5 1.5,-1.5 v 0 c 0.82843,0 1.5,0.55521 1.5,1.38363 0,0.03782 0,0.07661 0,0.11637 0,1.35715 0,2 0,2"
         stroke="#000000"
         stroke-width="1.5"
         stroke-linecap="round"
         stroke-linejoin="round"
         id="path3136" /></g><path
       style="fill:#ffffff;stroke:#000000;stroke-width:1.52381;stroke-linecap:round;stroke-linejoin:round;stroke-miterlimit:0;stroke-opacity:0;paint-order:stroke fill markers"
       d="m 163.79668,112.69905 c -0.3423,-0.10716 -0.85072,-0.32543 -1.12982,-0.48504 -0.2791,-0.15961 -4.03643,-4.1302 -8.34961,-8.82353 -8.75333,-9.524814 -8.64063,-9.376682 -8.63691,-11.352385 0.003,-1.460612 0.26166,-2.033517 1.91985,-4.248166 l 1.276,-1.704201 0.0795,1.721542 c 0.0897,1.942478 0.27827,2.424226 1.25953,3.217332 0.47618,0.384873 0.74514,0.477138 1.53808,0.527628 1.36968,0.08722 2.27746,-0.398619 2.85342,-1.527112 0.27686,-0.542453 0.2887,-1.132027 0.29227,-14.55238 0.002,-9.060123 0.0591,-14.227489 0.16102,-14.669683 0.44166,-1.916767 2.42809,-2.802226 4.2954,-1.914697 0.31594,0.150164 0.72737,0.487428 0.91429,0.749476 0.33097,0.464003 0.34184,0.608139 0.41604,5.51662 l 0.0762,5.040168 0.41922,0.633012 c 0.54866,0.828463 1.38175,1.248556 2.47602,1.248556 1.09425,0 1.92735,-0.420083 2.47602,-1.248507 l 0.41922,-0.632963 0.0784,-5.040217 c 0.0684,-4.397149 0.11307,-5.117719 0.35013,-5.647662 0.52924,-1.183129 1.33164,-1.75446 2.46403,-1.75446 0.92982,0 1.6326,0.314078 2.09487,0.936212 0.72881,0.980849 0.76927,1.291062 0.86492,6.630989 l 0.0905,5.052916 0.46096,0.569139 c 0.65989,0.814749 1.34161,1.134553 2.41851,1.134553 1.15453,0 1.99989,-0.465668 2.53169,-1.394581 0.37162,-0.649116 0.38086,-0.744505 0.4555,-4.700657 0.0747,-3.956028 0.0839,-4.051911 0.45715,-4.717912 1.12884,-2.014445 3.67947,-1.989501 4.7652,0.0466 0.31751,0.595419 0.34226,0.874246 0.4148,4.67131 0.082,4.294457 0.0944,4.366837 0.89576,5.232652 0.59355,0.641312 1.12556,0.862586 2.07395,0.862586 1.06899,0 1.70526,-0.26284 2.31366,-0.955764 0.6023,-0.685988 0.81256,-1.632081 0.81367,-3.66126 10e-4,-1.987087 0.17992,-2.613371 0.9726,-3.406047 1.51891,-1.518912 3.78314,-0.800367 4.44892,1.411848 0.18067,0.600344 0.21572,3.582904 0.21572,18.357748 0,11.680773 -0.0551,18.043667 -0.16297,18.832927 -0.19861,1.45256 -0.90706,3.63376 -1.54921,4.76975 -0.61185,1.08239 -2.69433,3.16486 -3.77671,3.77671 -1.136,0.64215 -3.31719,1.3506 -4.76975,1.54921 -1.81421,0.24805 -20.86546,0.20213 -21.67801,-0.0523 z"
       id="path3274" /></g><path
     fill="#000000"
     d="m 71.16632,12.95352 -0.20682,10.98422 5.39432,0.10184 0.20682,-10.984 z m 18.433219,2.58364 -6.21844,10.15515 4.60122,2.81743 6.218003,-10.15515 z m 13.491881,12.11407 -10.050851,4.66327 2.270493,4.89436 10.051298,-4.66327 z m -5.301708,16.235789 -0.16365,5.39253 10.259458,0.3118 0.16388,-5.39253 z"
     id="path4941"
     style="stroke-width:0.224801"
     sodipodi:nodetypes="cccccccccccccccccccc" /></svg>
