# Blender v2.81 (sub 16) OBJ File: ''
# www.blender.org
o MainBody_-vehicle_Cube.001
v -0.253682 0.441140 -0.725897
v -0.253682 0.092000 -0.621739
v 0.245079 0.092000 -0.621739
v -0.253682 0.441140 -0.725897
v 0.245079 0.092000 -0.621739
v 0.245079 0.441140 -0.725897
v -0.399295 -0.411150 -1.151788
v -0.253682 -0.411150 -1.326199
v -0.326488 -0.411150 -0.657625
v -0.399295 -0.411150 -1.151788
v -0.326488 -0.411150 -0.657625
v -0.753682 -0.328365 -0.691902
v -0.253682 -0.304796 -1.802842
v -0.253682 -0.411150 -1.326199
v -0.253682 0.086387 -1.326199
v -0.253682 0.086387 -1.802842
v -0.253682 -0.304796 -1.802842
v -0.253682 0.086387 -1.326199
v -0.253682 -0.411150 1.033528
v 0.245079 -0.411150 1.033529
v 0.181095 -0.411151 2.673801
v -0.253682 -0.411150 1.033528
v 0.181095 -0.411151 2.673801
v -0.189698 -0.411151 2.673801
v -0.189698 -0.111042 2.673801
v -0.189698 -0.411151 2.673801
v 0.181095 -0.411151 2.673801
v -0.189698 -0.111042 2.673801
v 0.181095 -0.411151 2.673801
v 0.181095 -0.111042 2.673801
v 0.181095 -0.111042 2.673801
v 0.181095 -0.411151 2.673801
v 0.245079 -0.411150 1.033529
v 0.181095 -0.111042 2.673801
v 0.245079 -0.411150 1.033529
v 0.245079 0.046510 1.033529
v 0.745079 -0.328365 -0.691902
v 0.383269 -0.411150 -1.160679
v 0.245079 -0.411150 -1.326199
v 0.245079 0.086387 -1.326199
v 0.745079 0.018171 -0.691902
v 0.245079 0.086387 -1.326199
v 0.383269 0.086386 -1.160679
v 0.745079 0.018171 -0.691902
v 0.245079 0.086387 -1.326199
v -0.326488 -0.411150 -0.657625
v 0.314174 -0.411150 -0.657634
v 0.245079 -0.411150 1.033529
v -0.326488 -0.411150 -0.657625
v 0.245079 -0.411150 1.033529
v -0.253682 -0.411150 1.033528
v -0.253682 0.046510 1.033529
v -0.253682 -0.411150 1.033528
v -0.189698 -0.411151 2.673801
v -0.253682 0.046510 1.033529
v -0.189698 -0.411151 2.673801
v -0.189698 -0.111042 2.673801
v -0.253682 0.046510 1.033529
v -0.189698 -0.111042 2.673801
v 0.181095 -0.111042 2.673801
v -0.253682 0.046510 1.033529
v 0.181095 -0.111042 2.673801
v 0.245079 0.046510 1.033529
v 0.707761 -0.328365 0.497192
v 0.245079 -0.411150 1.033529
v 0.314174 -0.411150 -0.657634
v 0.707761 -0.328365 0.497192
v 0.314174 -0.411150 -0.657634
v 0.745079 -0.328365 -0.691902
v -0.399295 0.090689 -0.631860
v -0.399295 0.089777 -0.726310
v -0.753682 0.018171 -0.691902
v 0.707761 -0.006264 0.497192
v 0.707761 -0.328365 0.497192
v 0.745079 -0.328365 -0.691902
v 0.707761 -0.006264 0.497192
v 0.745079 -0.328365 -0.691902
v 0.745079 0.018171 -0.691902
v 0.383269 0.089848 -0.726288
v 0.745079 0.018171 -0.691902
v 0.383269 0.087310 -1.044781
v 0.383269 0.087310 -1.044781
v 0.745079 0.018171 -0.691902
v 0.383269 0.086386 -1.160679
v 0.245079 0.086387 -1.802842
v 0.245079 -0.304796 -1.802842
v -0.253682 -0.304796 -1.802842
v 0.245079 0.086387 -1.802842
v -0.253682 -0.304796 -1.802842
v -0.253682 0.086387 -1.802842
v 0.245079 -0.304796 -1.802842
v 0.245079 -0.411150 -1.326199
v -0.253682 -0.411150 -1.326199
v -0.253682 -0.411150 -1.326199
v -0.253682 -0.304796 -1.802842
v -0.253682 0.086387 -1.326199
v 0.245079 0.086387 -1.326199
v 0.245079 0.086387 -1.802842
v -0.253682 0.086387 -1.326199
v 0.245079 0.086387 -1.802842
v -0.253682 0.086387 -1.802842
v 0.245079 0.086387 -1.326199
v 0.245079 -0.411150 -1.326199
v 0.245079 -0.304796 -1.802842
v 0.245079 0.086387 -1.326199
v 0.245079 0.086387 -1.802842
v 0.245079 0.422188 -0.929382
v 0.245079 0.086387 -1.326199
v -0.253682 0.086387 -1.326199
v 0.245079 0.422188 -0.929382
v -0.253682 0.086387 -1.326199
v -0.253682 0.422188 -0.929382
v 0.245079 0.046510 1.033529
v 0.707761 -0.006264 0.497192
v 0.383269 0.090756 -0.631343
v 0.245079 0.092000 -0.621739
v 0.245079 0.046510 1.033529
v 0.383269 0.090756 -0.631343
v -0.253682 0.086387 -1.326199
v -0.399295 0.086386 -1.151788
v -0.399295 0.087291 -1.038268
v -0.253682 0.422188 -0.929382
v -0.253682 0.086387 -1.326199
v -0.399295 0.087291 -1.038268
v 0.245079 0.092000 -0.621739
v 0.383269 0.090756 -0.631343
v 0.383269 0.089848 -0.726288
v 0.245079 0.092000 -0.621739
v 0.383269 0.089848 -0.726288
v 0.245079 0.441140 -0.725897
v -0.715060 -0.006264 0.503553
v -0.399295 0.090689 -0.631860
v -0.753682 0.018171 -0.691902
v 0.314174 -0.411150 -0.657634
v 0.245079 -0.411150 -1.326199
v 0.383269 -0.411150 -1.160679
v 0.745079 -0.328365 -0.691902
v 0.314174 -0.411150 -0.657634
v -0.753682 0.018171 -0.691902
v -0.753682 -0.328365 -0.691902
v -0.715060 -0.328365 0.503553
v -0.753682 0.018171 -0.691902
v -0.715060 -0.328365 0.503553
v -0.715060 -0.006264 0.503553
v 0.245079 -0.411150 -1.326199
v 0.314174 -0.411150 -0.657634
v -0.326488 -0.411150 -0.657625
v -0.253682 -0.411150 -1.326199
v -0.326488 -0.411150 -0.657625
v -0.253682 0.092000 -0.621739
v -0.253682 0.046510 1.033529
v 0.245079 0.046510 1.033529
v -0.253682 0.092000 -0.621739
v 0.245079 0.046510 1.033529
v 0.245079 0.092000 -0.621739
v -0.399295 0.090689 -0.631860
v -0.715060 -0.006264 0.503553
v -0.253682 0.046510 1.033529
v -0.399295 0.090689 -0.631860
v -0.253682 0.046510 1.033529
v -0.253682 0.092000 -0.621739
v -0.399295 0.086386 -1.151788
v -0.753682 0.018171 -0.691902
v -0.399295 0.089777 -0.726310
v -0.399295 0.087291 -1.038268
v -0.399295 0.086386 -1.151788
v -0.399295 0.089777 -0.726310
v -0.715060 -0.328365 0.503553
v -0.253682 -0.411150 1.033528
v -0.253682 0.046510 1.033529
v -0.715060 -0.006264 0.503553
v -0.715060 -0.328365 0.503553
v -0.253682 0.046510 1.033529
v -0.399295 0.089777 -0.726310
v -0.399295 0.090689 -0.631860
v -0.253682 0.092000 -0.621739
v -0.253682 0.441140 -0.725897
v -0.399295 0.089777 -0.726310
v -0.253682 0.092000 -0.621739
v 0.745079 0.018171 -0.691902
v 0.383269 0.089848 -0.726288
v 0.383269 0.090756 -0.631343
v 0.745079 0.018171 -0.691902
v 0.383269 0.090756 -0.631343
v 0.707761 -0.006264 0.497192
v 0.245079 0.046510 1.033529
v 0.245079 -0.411150 1.033529
v 0.707761 -0.328365 0.497192
v 0.245079 0.046510 1.033529
v 0.707761 -0.328365 0.497192
v 0.707761 -0.006264 0.497192
v 0.383269 0.089848 -0.726288
v 0.383269 0.087310 -1.044781
v 0.245079 0.422188 -0.929382
v 0.245079 0.441140 -0.725897
v 0.383269 0.089848 -0.726288
v 0.245079 0.422188 -0.929382
v 0.383269 0.087310 -1.044781
v 0.383269 0.086386 -1.160679
v 0.245079 0.086387 -1.326199
v 0.383269 0.087310 -1.044781
v 0.245079 0.086387 -1.326199
v 0.245079 0.422188 -0.929382
v -0.253682 0.422188 -0.929382
v -0.399295 0.087291 -1.038268
v -0.399295 0.089777 -0.726310
v -0.253682 0.422188 -0.929382
v -0.399295 0.089777 -0.726310
v -0.253682 0.441140 -0.725897
v 0.245079 0.422188 -0.929382
v -0.253682 0.422188 -0.929382
v -0.253682 0.441140 -0.725897
v 0.245079 0.441140 -0.725897
v 0.245079 0.422188 -0.929382
v -0.253682 0.441140 -0.725897
v -0.326488 -0.411150 -0.657625
v -0.253682 -0.411150 1.033528
v -0.715060 -0.328365 0.503553
v -0.753682 -0.328365 -0.691902
v -0.326488 -0.411150 -0.657625
v -0.715060 -0.328365 0.503553
v -0.253682 0.086387 -1.326199
v -0.253682 -0.411150 -1.326199
v -0.399295 -0.411150 -1.151788
v -0.253682 0.086387 -1.326199
v -0.399295 -0.411150 -1.151788
v -0.753682 -0.328365 -0.691902
v -0.253682 0.086387 -1.326199
v -0.753682 -0.328365 -0.691902
v -0.753682 0.018171 -0.691902
v -0.253682 0.086387 -1.326199
v -0.753682 0.018171 -0.691902
v -0.399295 0.086386 -1.151788
vn -0.0000 0.2859 0.9583
vn -1.0000 0.0000 -0.0000
vn 0.0000 -1.0000 -0.0000
vn 0.0000 0.0000 1.0000
vn 0.9992 0.0000 0.0390
vn -0.9992 0.0000 0.0390
vn 0.0000 0.9954 0.0956
vn -0.1989 0.9800 -0.0095
vn 0.9995 0.0000 0.0314
vn 0.1950 0.9808 -0.0078
vn 0.0000 0.0000 -1.0000
vn 0.0000 -0.9760 -0.2178
vn 0.0000 1.0000 0.0000
vn 1.0000 0.0000 0.0000
vn 0.0000 0.7634 -0.6460
vn -0.2047 0.9785 0.0266
vn -0.9995 0.0000 0.0323
vn -0.0000 0.9996 0.0275
vn -0.1988 0.9800 -0.0078
vn -0.7542 -0.0000 0.6566
vn 0.1952 0.9807 -0.0094
vn 0.7572 0.0000 0.6532
vn 0.0000 0.9957 -0.0927
vn -0.1664 -0.9827 0.0812
vn -0.0940 -0.9827 0.1595
vn -0.1740 -0.9827 0.0633
vn -0.1289 -0.9916 -0.0054
vn -0.1227 -0.9924 0.0112
vn -0.1593 -0.9866 -0.0361
vn 0.7844 0.0105 -0.6201
vn 0.7621 0.1781 -0.6224
vn 0.7849 0.0077 -0.6196
vn 0.7849 -0.0001 -0.6197
vn 0.7849 -0.0000 -0.6197
vn 0.7849 -0.0002 -0.6196
vn 0.7569 -0.2125 -0.6180
vn 0.7545 -0.2122 -0.6210
vn 0.7589 -0.2128 -0.6155
vn 0.1874 -0.9823 0.0052
vn 0.1857 -0.9826 0.0040
vn 0.1877 -0.9822 0.0056
vn 0.1846 -0.9828 0.0088
vn 0.1845 -0.9828 0.0086
vn 0.1864 -0.9824 0.0106
vn 0.1155 0.9925 0.0406
vn 0.1188 0.9927 0.0229
vn 0.1178 0.9927 0.0258
vn 0.1401 0.9881 0.0638
vn 0.1437 0.9885 0.0466
vn 0.1438 0.9885 0.0459
vn -0.8290 0.3053 -0.4686
vn -0.6923 0.3051 -0.6539
vn -0.4710 0.3059 -0.8274
vn -0.7755 0.5176 -0.3615
vn -0.7800 0.5141 -0.3567
vn -0.7702 0.5209 -0.3682
vn 0.3263 0.0844 0.9415
vn 0.2182 0.0856 0.9721
vn 0.2037 0.0857 0.9753
vn 0.5886 0.2853 0.7564
vn 0.5822 0.2862 0.7610
vn 0.5853 0.2859 0.7588
vn 0.1742 -0.9829 0.0592
vn 0.0969 -0.9829 0.1564
vn 0.1665 -0.9829 0.0783
vn 0.1585 -0.9868 -0.0327
vn 0.1259 -0.9920 0.0112
vn 0.1313 -0.9913 -0.0039
vn -0.1163 0.9929 0.0255
vn -0.1176 0.9928 0.0220
vn -0.1138 0.9927 0.0410
vn -0.1430 0.9886 0.0468
vn -0.1429 0.9886 0.0475
vn -0.1388 0.9881 0.0657
vn 0.0000 0.0000 0.0000
vn -0.1932 0.0853 0.9774
vn -0.2092 0.0851 0.9742
vn -0.3146 0.0840 0.9455
vn -0.5653 0.2897 0.7723
vn -0.5622 0.2900 0.7745
vn -0.5684 0.2892 0.7702
vn 0.2009 0.9793 0.0264
vn 0.9247 0.3770 -0.0537
vn 0.9219 0.3836 -0.0539
vn 0.9232 0.3805 -0.0540
vn 0.9291 0.3675 0.0414
vn 0.9238 0.3808 0.0397
vn 0.9319 0.3604 0.0412
vn 0.4820 0.3054 -0.8212
vn 0.6990 0.3047 -0.6470
vn 0.8344 0.3049 -0.4591
vn 0.7790 0.5131 -0.3604
vn 0.7885 0.5064 -0.3490
vn 0.7842 0.5098 -0.3538
vn -0.9160 0.3971 -0.0571
vn -0.9145 0.4004 -0.0572
vn -0.9174 0.3939 -0.0569
vn -0.9253 0.3769 0.0425
vn -0.9165 0.3979 0.0410
vn -0.9222 0.3843 0.0427
vn -0.1891 -0.9820 0.0057
vn -0.1868 -0.9824 0.0039
vn -0.1888 -0.9820 0.0053
vn -0.1876 -0.9822 0.0114
vn -0.1854 -0.9826 0.0092
vn -0.1855 -0.9826 0.0094
vn -0.7773 0.0021 -0.6291
vn -0.7774 -0.0000 -0.6290
vn -0.7773 0.0017 -0.6291
vn -0.7877 0.0102 -0.6160
vn -0.7871 0.0109 -0.6167
vn -0.7867 0.0116 -0.6172
vn -0.7849 -0.0001 -0.6196
vn -0.7849 -0.0002 -0.6196
vn -0.7849 -0.0000 -0.6196
vn -0.7588 -0.2128 -0.6155
vn -0.7544 -0.2122 -0.6212
vn -0.7568 -0.2125 -0.6181
s off
f 1//1 2//1 3//1
f 4//1 5//1 6//1
f 13//2 14//2 15//2
f 16//2 17//2 18//2
f 19//3 20//3 21//3
f 22//3 23//3 24//3
f 25//4 26//4 27//4
f 28//4 29//4 30//4
f 31//5 32//5 33//5
f 34//5 35//5 36//5
f 46//3 47//3 48//3
f 49//3 50//3 51//3
f 52//6 53//6 54//6
f 55//6 56//6 57//6
f 58//7 59//7 60//7
f 61//7 62//7 63//7
f 70//8 71//8 72//8
f 73//9 74//9 75//9
f 76//9 77//9 78//9
f 79//10 80//10 81//10
f 82//10 83//10 84//10
f 85//11 86//11 87//11
f 88//11 89//11 90//11
f 91//12 92//12 93//12
f 91//12 94//12 95//12
f 96//13 97//13 98//13
f 99//13 100//13 101//13
f 102//14 103//14 104//14
f 105//14 104//14 106//14
f 107//15 108//15 109//15
f 110//15 111//15 112//15
f 131//16 132//16 133//16
f 139//17 140//17 141//17
f 142//17 143//17 144//17
f 145//3 146//3 147//3
f 148//3 145//3 149//3
f 150//18 151//18 152//18
f 153//18 154//18 155//18
f 162//19 163//19 164//19
f 168//20 169//20 170//20
f 171//20 172//20 173//20
f 180//21 181//21 182//21
f 186//22 187//22 188//22
f 189//22 190//22 191//22
f 210//23 211//23 212//23
f 213//23 214//23 215//23
s 1
f 7//24 8//25 9//26
f 10//27 11//28 12//29
f 37//30 38//31 39//32
f 37//30 39//32 40//33
f 41//34 37//35 42//33
f 43//36 44//37 45//38
f 64//39 65//40 66//41
f 67//42 68//43 69//44
f 113//45 114//46 115//47
f 116//48 117//49 118//50
f 119//51 120//52 121//53
f 122//54 123//55 124//56
f 125//57 126//58 127//59
f 128//60 129//61 130//62
f 134//63 135//64 136//65
f 137//66 138//67 136//68
f 156//69 157//70 158//71
f 159//72 160//73 161//74
f 165//75 166//75 167//75
f 174//76 175//77 176//78
f 177//79 178//80 179//81
f 183//82 184//82 185//82
f 192//83 193//84 194//85
f 195//86 196//87 197//88
f 198//89 199//90 200//91
f 201//92 202//93 203//94
f 204//95 205//96 206//97
f 207//98 208//99 209//100
f 216//101 217//102 218//103
f 219//104 220//105 221//106
f 222//107 223//108 224//109
f 225//110 226//111 227//112
f 228//113 229//114 230//115
f 231//116 232//117 233//118
o FrontWing_-col_Cube.002
v 0.886320 -0.226304 2.063104
v 0.886320 -0.396180 2.063104
v -0.886320 -0.396180 2.063104
v -0.886320 -0.226304 2.063104
v 0.799657 -0.297536 2.591626
v 0.799657 -0.396180 2.591626
v 0.886320 -0.396180 2.063104
v 0.886320 -0.226304 2.063104
v -0.799657 -0.297536 2.591626
v -0.799657 -0.396180 2.591626
v 0.799657 -0.396180 2.591626
v 0.799657 -0.297536 2.591626
v -0.886320 -0.226304 2.063104
v -0.886320 -0.396180 2.063104
v -0.799657 -0.396180 2.591626
v -0.799657 -0.297536 2.591626
v -0.886320 -0.396180 2.063104
v 0.886320 -0.396180 2.063104
v 0.799657 -0.396180 2.591626
v -0.799657 -0.396180 2.591626
v -0.886320 -0.226304 2.063104
v -0.799657 -0.297536 2.591626
v 0.799657 -0.297536 2.591626
v 0.886320 -0.226304 2.063104
vn 0.0000 0.0000 -1.0000
vn 0.9868 0.0000 0.1618
vn 0.0000 0.0000 1.0000
vn -0.9868 0.0000 0.1618
vn 0.0000 -1.0000 -0.0000
vn -0.0000 0.9910 0.1336
s off
f 234//119 235//119 236//119
f 234//119 236//119 237//119
f 238//120 239//120 240//120
f 238//120 240//120 241//120
f 242//121 243//121 244//121
f 242//121 244//121 245//121
f 246//122 247//122 248//122
f 246//122 248//122 249//122
f 250//123 251//123 252//123
f 250//123 252//123 253//123
f 254//124 255//124 256//124
f 254//124 256//124 257//124
